<!DOCTYPE svg PUBLIC "-//W3C//DTD SVG 1.1//EN" "http://www.w3.org/Graphics/SVG/1.1/DTD/svg11.dtd">
<!-- Uploaded to: SVG Repo, www.svgrepo.com, Transformed by: SVG Repo Mixer Tools -->
<svg width="800px" height="800px" viewBox="-0.48 -0.48 24.96 24.96" fill="none" xmlns="http://www.w3.org/2000/svg" stroke="#181f1f">
<g id="SVGRepo_bgCarrier" stroke-width="0"/>
<g id="SVGRepo_tracerCarrier" stroke-linecap="round" stroke-linejoin="round"/>
<g id="SVGRepo_iconCarrier"> <circle cx="10" cy="6" r="4" stroke="#181f1f" stroke-width="1.2"/> <path d="M19 2C19 2 21 3.2 21 6C21 8.8 19 10 19 10" stroke="#181f1f" stroke-width="1.2" stroke-linecap="round"/> <path d="M17 4C17 4 18 4.6 18 6C18 7.4 17 8 17 8" stroke="#181f1f" stroke-width="1.2" stroke-linecap="round"/> <path d="M13 20.6151C12.0907 20.8619 11.0736 21 10 21C6.13401 21 3 19.2091 3 17C3 14.7909 6.13401 13 10 13C13.866 13 17 14.7909 17 17C17 17.3453 16.9234 17.6804 16.7795 18" stroke="#181f1f" stroke-width="1.2" stroke-linecap="round"/> </g>
</svg>